Mon Oct  7 01:16:07 COT 2013
Parameter 1: /var/www/pyl5/ImageProcessing/Execution/vocabulary.xml
Parameter 2: /var/www/pyl5/www/output/images/1770a6a042f4bdf617f706b21d666755/script.xml
Parameter 3: /var/www/pyl5/www/output/images/1770a6a042f4bdf617f706b21d666755/score.xml
Parameter 4: /var/www/pyl5/ImageProcessing
Parameter 5: /var/www/pyl5/www/output/images/1770a6a042f4bdf617f706b21d666755/SoundFilm.log
Parameter 6: 
Parameter 7: 

ffmpeg version N-42091-gf7cba73 Copyright (c) 2000-2012 the FFmpeg developers
  built on Jul  1 2012 05:10:32 with gcc 4.6.3
  configuration: --prefix=/root/ffmpeg-static/32bit --arch=x86_32 --extra-cflags='-m32 -I/root/ffmpeg-static/32bit/include -static' --extra-ldflags='-m32 -L/root/ffmpeg-static/32bit/lib -static' --extra-libs='-lxml2 -lexpat -lfreetype' --enable-static --disable-shared --disable-ffserver --disable-doc --enable-bzlib --enable-zlib --enable-postproc --enable-runtime-cpudetect --enable-libx264 --enable-gpl --enable-libtheora --enable-libvorbis --enable-libmp3lame --enable-gray --enable-libass --enable-libfreetype --enable-libopenjpeg --enable-libspeex --enable-libvo-aacenc --enable-libvo-amrwbenc --enable-version3 --enable-libvpx
  libavutil      51. 63.100 / 51. 63.100
  libavcodec     54. 31.100 / 54. 31.100
  libavformat    54. 14.100 / 54. 14.100
  libavdevice    54.  0.100 / 54.  0.100
  libavfilter     3.  0.100 /  3.  0.100
  libswscale      2.  1.100 /  2.  1.100
  libswresample   0. 15.100 /  0. 15.100
  libpostproc    52.  0.100 / 52.  0.100
[wav @ 0x9b19660] max_analyze_duration 5000000 reached at 5015510
Guessed Channel Layout for  Input Stream #0.0 : stereo
Input #0, wav, from '/var/www/pyl5/www/output/images/1770a6a042f4bdf617f706b21d666755/tmpgarage.wav':
  Duration: 00:00:06.90, bitrate: 1411 kb/s
    Stream #0:0: Audio: pcm_s16le ([1][0][0][0] / 0x0001), 44100 Hz, stereo, s16, 1411 kb/s
[graph 0 input from stream 0:0 @ 0x9b81420] tb:1/44100 samplefmt:s16 samplerate:44100 chlayout:0x3
Output #0, mp3, to '/var/www/pyl5/www/output/images/1770a6a042f4bdf617f706b21d666755/squirrel.wav.mp3':
  Metadata:
    TSSE            : Lavf54.14.100
    Stream #0:0: Audio: mp3, 44100 Hz, stereo, s16, 128 kb/s
Stream mapping:
  Stream #0:0 -> #0:0 (pcm_s16le -> libmp3lame)
Press [q] to stop, [?] for help
size=      12kB time=00:00:00.73 bitrate= 137.3kbits/s    size=      25kB time=00:00:01.56 bitrate= 132.3kbits/s    size=      38kB time=00:00:02.37 bitrate= 130.9kbits/s    size=      50kB time=00:00:03.16 bitrate= 130.2kbits/s    size=      65kB time=00:00:04.07 bitrate= 129.7kbits/s    size=      76kB time=00:00:04.80 bitrate= 129.4kbits/s    size=      88kB time=00:00:05.59 bitrate= 129.2kbits/s    size=     109kB time=00:00:06.92 bitrate= 129.0kbits/s    
video:0kB audio:109kB subtitle:0 global headers:0kB muxing overhead 0.406559%
ffmpeg version N-42091-gf7cba73 Copyright (c) 2000-2012 the FFmpeg developers
  built on Jul  1 2012 05:10:32 with gcc 4.6.3
  configuration: --prefix=/root/ffmpeg-static/32bit --arch=x86_32 --extra-cflags='-m32 -I/root/ffmpeg-static/32bit/include -static' --extra-ldflags='-m32 -L/root/ffmpeg-static/32bit/lib -static' --extra-libs='-lxml2 -lexpat -lfreetype' --enable-static --disable-shared --disable-ffserver --disable-doc --enable-bzlib --enable-zlib --enable-postproc --enable-runtime-cpudetect --enable-libx264 --enable-gpl --enable-libtheora --enable-libvorbis --enable-libmp3lame --enable-gray --enable-libass --enable-libfreetype --enable-libopenjpeg --enable-libspeex --enable-libvo-aacenc --enable-libvo-amrwbenc --enable-version3 --enable-libvpx
  libavutil      51. 63.100 / 51. 63.100
  libavcodec     54. 31.100 / 54. 31.100
  libavformat    54. 14.100 / 54. 14.100
  libavdevice    54.  0.100 / 54.  0.100
  libavfilter     3.  0.100 /  3.  0.100
  libswscale      2.  1.100 /  2.  1.100
  libswresample   0. 15.100 /  0. 15.100
  libpostproc    52.  0.100 / 52.  0.100
[wav @ 0xabcd660] max_analyze_duration 5000000 reached at 5015510
Guessed Channel Layout for  Input Stream #0.0 : mono
Input #0, wav, from '/var/www/pyl5/www/output/images/1770a6a042f4bdf617f706b21d666755/tmpgarage.wav':
  Duration: 00:00:13.07, bitrate: 705 kb/s
    Stream #0:0: Audio: pcm_s16le ([1][0][0][0] / 0x0001), 44100 Hz, mono, s16, 705 kb/s
[graph 0 input from stream 0:0 @ 0xabd3900] tb:1/44100 samplefmt:s16 samplerate:44100 chlayout:0x4
Output #0, mp3, to '/var/www/pyl5/www/output/images/1770a6a042f4bdf617f706b21d666755/bird001.wav.mp3':
  Metadata:
    TSSE            : Lavf54.14.100
    Stream #0:0: Audio: mp3, 44100 Hz, mono, s16, 128 kb/s
Stream mapping:
  Stream #0:0 -> #0:0 (pcm_s16le -> libmp3lame)
Press [q] to stop, [?] for help
size=      68kB time=00:00:04.28 bitrate= 129.6kbits/s    size=     127kB time=00:00:08.04 bitrate= 128.8kbits/s    size=     193kB time=00:00:12.27 bitrate= 128.6kbits/s    size=     205kB time=00:00:13.08 bitrate= 128.5kbits/s    
video:0kB audio:205kB subtitle:0 global headers:0kB muxing overhead 0.215428%
Hello, SBI!
temporal = /var/www/pyl5/www/output/images/1770a6a042f4bdf617f706b21d666755/
el script es valido
el vocabulario es valido
listo para los objetos
el objeto que da es Rabbit
el objeto que da es Rabbit
listo para los actores
el actor que da es Bird
el actor que da es Butterfly
el actor que da es Squirrel
el objeto que da es Squirrel
el objeto que da es Squirrel
listo para los actores
el actor que da es Bird
el actor que da es Butterfly
el actor que da es Squirrel
el objeto que da es Squirrel
es fondo o voz
es el por defecto
el sonido por defecto del actor es SquirrelDefault
hola
you can do it
you can do it
you can do it
temporal string = /var/www/pyl5/www/output/images/1770a6a042f4bdf617f706b21d666755/
copiando /var/www/pyl5/ImageProcessing/SoundFilm/squirrel.wav en /var/www/pyl5/www/output/images/1770a6a042f4bdf617f706b21d666755/tmp_1.wav
copiando /var/www/pyl5/ImageProcessing/SoundFilm/squirrel.wav en /var/www/pyl5/www/output/images/1770a6a042f4bdf617f706b21d666755/tmp_2.wav
copiando /var/www/pyl5/ImageProcessing/SoundFilm/squirrel.wav en /var/www/pyl5/www/output/images/1770a6a042f4bdf617f706b21d666755/tmp_3.wav
copiando /var/www/pyl5/ImageProcessing/SoundFilm/squirrel.wav en /var/www/pyl5/www/output/images/1770a6a042f4bdf617f706b21d666755/tmp_4.wav
copiando /var/www/pyl5/ImageProcessing/SoundFilm/squirrel.wav en /var/www/pyl5/www/output/images/1770a6a042f4bdf617f706b21d666755/tmp_5.wav
tu
el actor es ::Squirrel::
la animacion del actor es ::gg]::
la de la acciones ::CLAP::
el actor es ::Squirrel::
la animacion del actor es ::gg]::
la de la acciones ::FLAP::
el objeto que da es Chinchilla
el objeto que da es Chinchilla
listo para los actores
el actor que da es Bird
el actor que da es Butterfly
el actor que da es Squirrel
el objeto que da es Butterfly
el objeto que da es Butterfly
listo para los actores
el actor que da es Bird
el actor que da es Butterfly
el objeto que da es Butterfly
el actor que da es Squirrel
el objeto que da es Bird
el objeto que da es Bird
listo para los actores
el actor que da es Bird
el objeto que da es Bird
es fondo o voz
es el por defecto
el sonido por defecto del actor es BirdDefault
hola
you can do it
you can do it
you can do it
temporal string = /var/www/pyl5/www/output/images/1770a6a042f4bdf617f706b21d666755/
copiando /var/www/pyl5/ImageProcessing/SoundFilm/bird001.wav en /var/www/pyl5/www/output/images/1770a6a042f4bdf617f706b21d666755/tmp_1.wav
copiando /var/www/pyl5/ImageProcessing/SoundFilm/bird001.wav en /var/www/pyl5/www/output/images/1770a6a042f4bdf617f706b21d666755/tmp_2.wav
copiando /var/www/pyl5/ImageProcessing/SoundFilm/bird001.wav en /var/www/pyl5/www/output/images/1770a6a042f4bdf617f706b21d666755/tmp_3.wav
copiando /var/www/pyl5/ImageProcessing/SoundFilm/bird001.wav en /var/www/pyl5/www/output/images/1770a6a042f4bdf617f706b21d666755/tmp_4.wav
copiando /var/www/pyl5/ImageProcessing/SoundFilm/bird001.wav en /var/www/pyl5/www/output/images/1770a6a042f4bdf617f706b21d666755/tmp_5.wav
tu
el actor es ::Bird::
la animacion del actor es ::-default-::
la de la acciones ::FLAP::
el actor que da es Butterfly
el actor que da es Squirrel
el objeto que da es FlyingSquirrel
el objeto que da es FlyingSquirrel
listo para los actores
el actor que da es Bird
el actor que da es Butterfly
el actor que da es Squirrel
el objeto que da es Apple
el objeto que da es Apple
listo para los actores
el actor que da es Bird
el actor que da es Butterfly
el actor que da es Squirrel
el objeto que da es SBCamera
el objeto que da es SBCamera
listo para los actores
el actor que da es Bird
el actor que da es Butterfly
el actor que da es Squirrel
el objeto que da es SBRectangle
el objeto que da es SBRectangle
listo para los actores
el actor que da es Bird
el actor que da es Butterfly
el actor que da es Squirrel
sayonara, SBI!

Mon Oct  7 01:16:14 COT 2013
